<mxfile host="app.diagrams.net" modified="2024-07-11T07:55:01.887Z" agent="Mozilla/5.0 (Macintosh; Intel Mac OS X 10_15_7) AppleWebKit/537.36 (KHTML, like Gecko) Chrome/126.0.0.0 Safari/537.36" etag="rVXRYx92fV5W04P46047" version="24.6.4" type="github">
  <diagram name="Page-1" id="BYTXbC25DRY8ZI2Z7DPX">
    <mxGraphModel dx="1026" dy="573" grid="1" gridSize="10" guides="1" tooltips="1" connect="1" arrows="1" fold="1" page="1" pageScale="1" pageWidth="827" pageHeight="1169" math="0" shadow="0">
      <root>
        <mxCell id="0" />
        <mxCell id="1" parent="0" />
        <mxCell id="M__pvSeYkyBA2umGWvLx-5" value="&lt;div&gt;Customer&lt;/div&gt;&lt;div&gt;POST/GET&lt;/div&gt;" style="rounded=1;whiteSpace=wrap;html=1;" parent="1" vertex="1">
          <mxGeometry x="100" y="300" width="120" height="60" as="geometry" />
        </mxCell>
        <mxCell id="M__pvSeYkyBA2umGWvLx-6" value="" style="rounded=1;whiteSpace=wrap;html=1;" parent="1" vertex="1">
          <mxGeometry x="324" y="290" width="180" height="60" as="geometry" />
        </mxCell>
        <mxCell id="M__pvSeYkyBA2umGWvLx-7" value="iomp-customer-service" style="text;html=1;align=center;verticalAlign=middle;whiteSpace=wrap;rounded=0;" parent="1" vertex="1">
          <mxGeometry x="350" y="307.5" width="130" height="22.5" as="geometry" />
        </mxCell>
        <mxCell id="M__pvSeYkyBA2umGWvLx-13" value="" style="shape=flexArrow;endArrow=classic;startArrow=classic;html=1;rounded=0;" parent="1" edge="1">
          <mxGeometry width="100" height="100" relative="1" as="geometry">
            <mxPoint x="220" y="320" as="sourcePoint" />
            <mxPoint x="320" y="320" as="targetPoint" />
          </mxGeometry>
        </mxCell>
        <mxCell id="M__pvSeYkyBA2umGWvLx-14" value="" style="shape=flexArrow;endArrow=classic;startArrow=classic;html=1;rounded=0;" parent="1" edge="1">
          <mxGeometry width="100" height="100" relative="1" as="geometry">
            <mxPoint x="504" y="319.5" as="sourcePoint" />
            <mxPoint x="600" y="320" as="targetPoint" />
          </mxGeometry>
        </mxCell>
        <mxCell id="M__pvSeYkyBA2umGWvLx-25" value="DB" style="shape=cylinder3;whiteSpace=wrap;html=1;boundedLbl=1;backgroundOutline=1;size=15;" parent="1" vertex="1">
          <mxGeometry x="600" y="280" width="60" height="80" as="geometry" />
        </mxCell>
        <mxCell id="M__pvSeYkyBA2umGWvLx-46" value="&lt;pre style=&quot;margin-top: 0px;&quot;&gt;{&lt;br&gt;   &quot;customerName&quot;:&quot;N1234&quot;,&lt;/pre&gt;&lt;pre style=&quot;margin-top: 0px;&quot;&gt;   &quot;isIntegrator&quot;:true/false&lt;br&gt;&lt;font size=&quot;3&quot; face=&quot;Lv7snBzfe4WO6jD27K0s&quot;&gt;}&lt;/font&gt;&lt;/pre&gt;" style="text;html=1;whiteSpace=wrap;overflow=hidden;rounded=0;align=left;" parent="1" vertex="1">
          <mxGeometry x="150" y="190" width="280" height="100" as="geometry" />
        </mxCell>
        <mxCell id="eWnXWsVsrv5pQYVKBkyM-1" value="&lt;pre style=&quot;margin-top: 0px;&quot;&gt;&lt;pre&gt;&lt;pre&gt;&lt;pre&gt;&lt;span dir=&quot;ltr&quot; class=&quot;ui-provider a b c d e f g h i j k l m n o p q r s t u v w x y z ab ac ae af ag ah ai aj ak&quot;&gt;&lt;p&gt;{&lt;/p&gt;&lt;p&gt;&amp;nbsp;&amp;nbsp;&amp;nbsp;&amp;nbsp;&amp;nbsp;&amp;nbsp;&amp;nbsp; &lt;span style=&quot;color: rgb(182, 66, 76);&quot;&gt;&quot;projectNumber&quot;&lt;/span&gt;: &lt;span style=&quot;color: rgb(30, 83, 163);&quot;&gt;&quot;000027&quot;&lt;/span&gt;,&lt;/p&gt;&lt;p&gt;&amp;nbsp;&amp;nbsp;&amp;nbsp;&amp;nbsp;&amp;nbsp;&amp;nbsp;&amp;nbsp; &lt;span style=&quot;color: rgb(182, 66, 76);&quot;&gt;&quot;customerName&quot;&lt;/span&gt;: &lt;span style=&quot;color: rgb(30, 83, 163);&quot;&gt;&quot;CSC&quot;&lt;/span&gt;,&lt;/p&gt;&lt;p&gt;&amp;nbsp;&amp;nbsp;&amp;nbsp;&amp;nbsp;&amp;nbsp;&amp;nbsp;&amp;nbsp; &lt;span style=&quot;color: rgb(182, 66, 76);&quot;&gt;&quot;projectName&quot;&lt;/span&gt;: &lt;span style=&quot;color: rgb(30, 83, 163);&quot;&gt;&quot;CSC - LLC&quot;&lt;/span&gt;,&lt;/p&gt;&lt;p&gt;&amp;nbsp;&amp;nbsp;&amp;nbsp;&amp;nbsp;&amp;nbsp;&amp;nbsp;&amp;nbsp; &lt;span style=&quot;color: rgb(182, 66, 76);&quot;&gt;&quot;customerSOW&quot;&lt;/span&gt;: &lt;span style=&quot;color: rgb(30, 83, 163);&quot;&gt;&quot;345366345&quot;&lt;/span&gt;,&lt;/p&gt;&lt;p&gt;&amp;nbsp;&amp;nbsp;&amp;nbsp;&amp;nbsp;&amp;nbsp;&amp;nbsp;&amp;nbsp; &lt;span style=&quot;color: rgb(182, 66, 76);&quot;&gt;&quot;sowTerm&quot;&lt;/span&gt;: &lt;span style=&quot;color: rgb(30, 83, 163);&quot;&gt;&quot;36&quot;&lt;/span&gt;,&lt;/p&gt;&lt;p&gt;&amp;nbsp;&amp;nbsp;&amp;nbsp;&amp;nbsp;&amp;nbsp;&amp;nbsp;&amp;nbsp; &lt;span style=&quot;color: rgb(182, 66, 76);&quot;&gt;&quot;salesPrefix&quot;&lt;/span&gt;: &lt;span style=&quot;color: rgb(30, 83, 163);&quot;&gt;&quot;fdg&quot;&lt;/span&gt;,&lt;/p&gt;&lt;p&gt;&amp;nbsp;&amp;nbsp;&amp;nbsp;&amp;nbsp;&amp;nbsp;&amp;nbsp;&amp;nbsp; &lt;span style=&quot;color: rgb(182, 66, 76);&quot;&gt;&quot;customerCurrency&quot;&lt;/span&gt;: &lt;span style=&quot;color: rgb(30, 83, 163);&quot;&gt;&quot;USD&quot;&lt;/span&gt;,&lt;/p&gt;&lt;p&gt;&amp;nbsp;&amp;nbsp;&amp;nbsp;&amp;nbsp;&amp;nbsp;&amp;nbsp;&amp;nbsp; &lt;span style=&quot;color: rgb(182, 66, 76);&quot;&gt;&quot;users&quot;&lt;/span&gt;: [&lt;/p&gt;&lt;p&gt;&amp;nbsp;&amp;nbsp;&amp;nbsp;&amp;nbsp;&amp;nbsp;&amp;nbsp;&amp;nbsp;&amp;nbsp;&amp;nbsp;&amp;nbsp;&amp;nbsp; {&lt;/p&gt;&lt;p&gt;&amp;nbsp;&amp;nbsp;&amp;nbsp;&amp;nbsp;&amp;nbsp;&amp;nbsp;&amp;nbsp;&amp;nbsp;&amp;nbsp;&amp;nbsp;&amp;nbsp;&amp;nbsp;&amp;nbsp;&amp;nbsp;&amp;nbsp; &lt;span style=&quot;color: rgb(182, 66, 76);&quot;&gt;&quot;userId&quot;&lt;/span&gt;: &lt;span style=&quot;color: rgb(43, 155, 98);&quot;&gt;1&lt;/span&gt;,&lt;/p&gt;&lt;p&gt;&amp;nbsp;&amp;nbsp;&amp;nbsp;&amp;nbsp;&amp;nbsp;&amp;nbsp;&amp;nbsp;&amp;nbsp;&amp;nbsp;&amp;nbsp;&amp;nbsp;&amp;nbsp;&amp;nbsp;&amp;nbsp;&amp;nbsp; &lt;span style=&quot;color: rgb(182, 66, 76);&quot;&gt;&quot;firstName&quot;&lt;/span&gt;: &lt;span style=&quot;color: rgb(30, 83, 163);&quot;&gt;&quot;Mark&quot;&lt;/span&gt;,&lt;/p&gt;&lt;p&gt;&amp;nbsp;&amp;nbsp;&amp;nbsp;&amp;nbsp;&amp;nbsp;&amp;nbsp;&amp;nbsp;&amp;nbsp;&amp;nbsp;&amp;nbsp;&amp;nbsp;&amp;nbsp;&amp;nbsp;&amp;nbsp;&amp;nbsp; &lt;span style=&quot;color: rgb(182, 66, 76);&quot;&gt;&quot;lastName&quot;&lt;/span&gt;: &lt;span style=&quot;color: rgb(30, 83, 163);&quot;&gt;&quot;Antony&quot;&lt;/span&gt;,&lt;/p&gt;&lt;p&gt;&amp;nbsp;&amp;nbsp;&amp;nbsp;&amp;nbsp;&amp;nbsp;&amp;nbsp;&amp;nbsp;&amp;nbsp;&amp;nbsp;&amp;nbsp;&amp;nbsp;&amp;nbsp;&amp;nbsp;&amp;nbsp;&amp;nbsp; &lt;span style=&quot;color: rgb(182, 66, 76);&quot;&gt;&quot;emailId&quot;&lt;/span&gt;: &lt;span style=&quot;color: rgb(30, 83, 163);&quot;&gt;&quot;mark.antony@convergent.com&quot;&lt;/span&gt;,&lt;/p&gt;&lt;p&gt;&amp;nbsp;&amp;nbsp;&amp;nbsp;&amp;nbsp;&amp;nbsp;&amp;nbsp;&amp;nbsp;&amp;nbsp;&amp;nbsp;&amp;nbsp;&amp;nbsp;&amp;nbsp;&amp;nbsp;&amp;nbsp;&amp;nbsp; &lt;span style=&quot;color: rgb(182, 66, 76);&quot;&gt;&quot;phone&quot;&lt;/span&gt;: &lt;span style=&quot;color: rgb(30, 83, 163);&quot;&gt;&quot;+17884809368&quot;&lt;/span&gt;,&lt;/p&gt;&lt;p&gt;&amp;nbsp;&amp;nbsp;&amp;nbsp;&amp;nbsp;&amp;nbsp;&amp;nbsp;&amp;nbsp;&amp;nbsp;&amp;nbsp;&amp;nbsp;&amp;nbsp;&amp;nbsp;&amp;nbsp;&amp;nbsp;&amp;nbsp; &lt;span style=&quot;color: rgb(182, 66, 76);&quot;&gt;&quot;primary&quot;&lt;/span&gt;: &lt;span style=&quot;color: rgb(30, 83, 163);&quot;&gt;&lt;strong&gt;true&lt;/strong&gt;&lt;/span&gt;&lt;/p&gt;&lt;p&gt;&amp;nbsp;&amp;nbsp;&amp;nbsp;&amp;nbsp;&amp;nbsp;&amp;nbsp;&amp;nbsp;&amp;nbsp;&amp;nbsp;&amp;nbsp;&amp;nbsp; }&lt;/p&gt;&lt;p&gt;&amp;nbsp;&amp;nbsp;&amp;nbsp;&amp;nbsp;&amp;nbsp;&amp;nbsp;&amp;nbsp; ],&lt;/p&gt;&lt;p&gt;&amp;nbsp;&amp;nbsp;&amp;nbsp;&amp;nbsp;&amp;nbsp;&amp;nbsp;&amp;nbsp; &lt;span style=&quot;color: rgb(182, 66, 76);&quot;&gt;&quot;address1&quot;&lt;/span&gt;: &lt;span style=&quot;color: rgb(30, 83, 163);&quot;&gt;&quot;Test Address 1&quot;&lt;/span&gt;,&lt;/p&gt;&lt;p&gt;&amp;nbsp;&amp;nbsp;&amp;nbsp;&amp;nbsp;&amp;nbsp;&amp;nbsp;&amp;nbsp; &lt;span style=&quot;color: rgb(182, 66, 76);&quot;&gt;&quot;address2&quot;&lt;/span&gt;: &lt;span style=&quot;color: rgb(30, 83, 163);&quot;&gt;&quot;Test Address 2&quot;&lt;/span&gt;,&lt;/p&gt;&lt;p&gt;&amp;nbsp;&amp;nbsp;&amp;nbsp;&amp;nbsp;&amp;nbsp;&amp;nbsp;&amp;nbsp; &lt;span style=&quot;color: rgb(182, 66, 76);&quot;&gt;&quot;city&quot;&lt;/span&gt;: &lt;span style=&quot;color: rgb(30, 83, 163);&quot;&gt;&quot;Test City&quot;&lt;/span&gt;,&lt;/p&gt;&lt;p&gt;&amp;nbsp;&amp;nbsp;&amp;nbsp;&amp;nbsp;&amp;nbsp;&amp;nbsp;&amp;nbsp; &lt;span style=&quot;color: rgb(182, 66, 76);&quot;&gt;&quot;stateProvince&quot;&lt;/span&gt;: &lt;span style=&quot;color: rgb(30, 83, 163);&quot;&gt;&quot;Test State&quot;&lt;/span&gt;,&lt;/p&gt;&lt;p&gt;&amp;nbsp;&amp;nbsp;&amp;nbsp;&amp;nbsp;&amp;nbsp;&amp;nbsp;&amp;nbsp; &lt;span style=&quot;color: rgb(182, 66, 76);&quot;&gt;&quot;postalCode&quot;&lt;/span&gt;: &lt;span style=&quot;color: rgb(30, 83, 163);&quot;&gt;&quot;123456&quot;&lt;/span&gt;,&lt;/p&gt;&lt;p&gt;&amp;nbsp;&amp;nbsp;&amp;nbsp;&amp;nbsp;&amp;nbsp;&amp;nbsp;&amp;nbsp; &lt;span style=&quot;color: rgb(182, 66, 76);&quot;&gt;&quot;continentCode&quot;&lt;/span&gt;: &lt;span style=&quot;color: rgb(30, 83, 163);&quot;&gt;&quot;N&quot;&lt;/span&gt;,&lt;/p&gt;&lt;p&gt;&amp;nbsp;&amp;nbsp;&amp;nbsp;&amp;nbsp;&amp;nbsp;&amp;nbsp;&amp;nbsp; &lt;span style=&quot;color: rgb(182, 66, 76);&quot;&gt;&quot;countryCode&quot;&lt;/span&gt;: &lt;span style=&quot;color: rgb(30, 83, 163);&quot;&gt;&quot;USA&quot;&lt;/span&gt;,&lt;/p&gt;&lt;p&gt;&amp;nbsp;&amp;nbsp;&amp;nbsp;&amp;nbsp;&amp;nbsp;&amp;nbsp;&amp;nbsp; &lt;span style=&quot;color: rgb(182, 66, 76);&quot;&gt;&quot;addressPhone&quot;&lt;/span&gt;: &lt;span style=&quot;color: rgb(30, 83, 163);&quot;&gt;&quot;+1123456788&quot;&lt;/span&gt;,&lt;/p&gt;&lt;p&gt;&amp;nbsp;&amp;nbsp;&amp;nbsp;&amp;nbsp;&amp;nbsp;&amp;nbsp;&amp;nbsp; &lt;span style=&quot;color: rgb(182, 66, 76);&quot;&gt;&quot;vatIsoCountryCode&quot;&lt;/span&gt;: &lt;span style=&quot;color: rgb(30, 83, 163);&quot;&gt;&quot;USA&quot;&lt;/span&gt;,&lt;/p&gt;&lt;p&gt;&amp;nbsp;&amp;nbsp;&amp;nbsp;&amp;nbsp;&amp;nbsp;&amp;nbsp;&amp;nbsp; &lt;span style=&quot;color: rgb(182, 66, 76);&quot;&gt;&quot;primaryTaxID&quot;&lt;/span&gt;: &lt;span style=&quot;color: rgb(30, 83, 163);&quot;&gt;&quot;fdgsdh&quot;&lt;/span&gt;,&lt;/p&gt;&lt;p&gt;&amp;nbsp;&amp;nbsp;&amp;nbsp;&amp;nbsp;&amp;nbsp;&amp;nbsp;&amp;nbsp; &lt;span style=&quot;color: rgb(182, 66, 76);&quot;&gt;&quot;taxIdRequired&quot;&lt;/span&gt;: &lt;span style=&quot;color: rgb(30, 83, 163);&quot;&gt;&quot;565553&quot;&lt;/span&gt;,&lt;/p&gt;&lt;p&gt;&amp;nbsp;&amp;nbsp;&amp;nbsp;&amp;nbsp;&amp;nbsp;&amp;nbsp;&amp;nbsp; &lt;span style=&quot;color: rgb(182, 66, 76);&quot;&gt;&quot;taxIdApplied&quot;&lt;/span&gt;: &lt;span style=&quot;color: rgb(30, 83, 163);&quot;&gt;&quot;dfgf&quot;&lt;/span&gt;,&lt;/p&gt;&lt;p&gt;&amp;nbsp;&amp;nbsp;&amp;nbsp;&amp;nbsp;&amp;nbsp;&amp;nbsp;&amp;nbsp; &lt;span style=&quot;color: rgb(182, 66, 76);&quot;&gt;&quot;customerType&quot;&lt;/span&gt;: &lt;span style=&quot;color: rgb(30, 83, 163);&quot;&gt;&quot;CUSTOMER&quot;&lt;/span&gt;&lt;/p&gt;&lt;p&gt;&amp;nbsp;&amp;nbsp;&amp;nbsp; }&lt;/p&gt;&lt;/span&gt;&lt;/pre&gt;&lt;/pre&gt;&lt;/pre&gt;&lt;/pre&gt;" style="text;html=1;whiteSpace=wrap;overflow=hidden;rounded=0;align=left;" parent="1" vertex="1">
          <mxGeometry x="100" y="350" width="290" height="370" as="geometry" />
        </mxCell>
        <mxCell id="U1rFQj1unEnm-weBzI8J-1" value="Customer" style="swimlane;fontStyle=0;childLayout=stackLayout;horizontal=1;startSize=26;fillColor=none;horizontalStack=0;resizeParent=1;resizeParentMax=0;resizeLast=0;collapsible=1;marginBottom=0;whiteSpace=wrap;html=1;" parent="1" vertex="1">
          <mxGeometry x="520" y="400" width="140" height="180" as="geometry" />
        </mxCell>
        <mxCell id="U1rFQj1unEnm-weBzI8J-2" value="customer_id" style="text;strokeColor=none;fillColor=none;align=left;verticalAlign=top;spacingLeft=4;spacingRight=4;overflow=hidden;rotatable=0;points=[[0,0.5],[1,0.5]];portConstraint=eastwest;whiteSpace=wrap;html=1;" parent="U1rFQj1unEnm-weBzI8J-1" vertex="1">
          <mxGeometry y="26" width="140" height="26" as="geometry" />
        </mxCell>
        <mxCell id="U1rFQj1unEnm-weBzI8J-3" value="customer_name" style="text;strokeColor=none;fillColor=none;align=left;verticalAlign=top;spacingLeft=4;spacingRight=4;overflow=hidden;rotatable=0;points=[[0,0.5],[1,0.5]];portConstraint=eastwest;whiteSpace=wrap;html=1;" parent="U1rFQj1unEnm-weBzI8J-1" vertex="1">
          <mxGeometry y="52" width="140" height="26" as="geometry" />
        </mxCell>
        <mxCell id="U1rFQj1unEnm-weBzI8J-4" value="isIntegrator" style="text;strokeColor=none;fillColor=none;align=left;verticalAlign=top;spacingLeft=4;spacingRight=4;overflow=hidden;rotatable=0;points=[[0,0.5],[1,0.5]];portConstraint=eastwest;whiteSpace=wrap;html=1;" parent="U1rFQj1unEnm-weBzI8J-1" vertex="1">
          <mxGeometry y="78" width="140" height="26" as="geometry" />
        </mxCell>
        <mxCell id="U1rFQj1unEnm-weBzI8J-5" value="groupId&lt;div&gt;&lt;br&gt;&lt;/div&gt;" style="text;strokeColor=none;fillColor=none;align=left;verticalAlign=top;spacingLeft=4;spacingRight=4;overflow=hidden;rotatable=0;points=[[0,0.5],[1,0.5]];portConstraint=eastwest;whiteSpace=wrap;html=1;" parent="U1rFQj1unEnm-weBzI8J-1" vertex="1">
          <mxGeometry y="104" width="140" height="26" as="geometry" />
        </mxCell>
        <mxCell id="U1rFQj1unEnm-weBzI8J-6" value="&lt;div&gt;created_by&lt;/div&gt;" style="text;strokeColor=none;fillColor=none;align=left;verticalAlign=top;spacingLeft=4;spacingRight=4;overflow=hidden;rotatable=0;points=[[0,0.5],[1,0.5]];portConstraint=eastwest;whiteSpace=wrap;html=1;" parent="U1rFQj1unEnm-weBzI8J-1" vertex="1">
          <mxGeometry y="130" width="140" height="20" as="geometry" />
        </mxCell>
        <mxCell id="U1rFQj1unEnm-weBzI8J-7" value="&lt;div&gt;created_date&lt;/div&gt;" style="text;strokeColor=none;fillColor=none;align=left;verticalAlign=top;spacingLeft=4;spacingRight=4;overflow=hidden;rotatable=0;points=[[0,0.5],[1,0.5]];portConstraint=eastwest;whiteSpace=wrap;html=1;" parent="U1rFQj1unEnm-weBzI8J-1" vertex="1">
          <mxGeometry y="150" width="140" height="30" as="geometry" />
        </mxCell>
      </root>
    </mxGraphModel>
  </diagram>
</mxfile>
